<svg width="512" height="512" xmlns="http://www.w3.org/2000/svg" xml:space="preserve" version="1.1">

 <g>
  <title>Layer 1</title>
  <path id="svg_4" fill="#819B9F" d="m514,256c0,141.376 -114.625,256 -256,256c-40.96,0 -79.698,-9.605 -113.99,-26.751c-49.85,-24.846 -90.413,-65.409 -115.259,-115.26c-17.146,-34.291 -26.751,-73.03 -26.751,-113.989c0,-7.144 0.317,-14.13 0.873,-21.115c10.16,-124.548 109.465,-223.851 234.012,-234.012c6.985,-0.555 13.971,-0.873 21.115,-0.873c48.739,0 94.303,13.653 133.12,37.308c34.927,21.274 64.298,50.644 85.572,85.572c23.654,38.817 37.308,84.381 37.308,133.12z"/>
  <g id="svg_5">
   <path id="svg_6" fill="#CECDC1" d="m290.196,149.937l-64.446,0l29.229,-71.748c1.646,-4.041 4.338,-4.041 5.985,0l29.232,71.748z"/>
   <path id="svg_7" fill="#CECDC1" d="m225.75,362.063l64.446,0l-29.229,71.748c-1.646,4.041 -4.338,4.041 -5.985,0l-29.232,-71.748z"/>
   <path id="svg_8" fill="#CECDC1" d="m364.036,288.223l0,-64.446l71.748,29.229c4.041,1.646 4.041,4.338 0,5.985l-71.748,29.232z"/>
   <path id="svg_9" fill="#CECDC1" d="m151.91,223.777l0,64.446l-71.748,-29.229c-4.041,-1.646 -4.041,-4.338 0,-5.985l71.748,-29.232z"/>
   <path id="svg_10" fill="#F5F4DF" d="m370.64,226.471c-2.937,-11.193 -7.541,-21.75 -13.415,-31.356c-9.605,-15.638 -22.782,-28.815 -38.341,-38.34c-9.605,-5.954 -20.162,-10.558 -31.355,-13.494c-9.446,-2.461 -19.369,-3.81 -29.529,-3.81c-10.161,0 -20.004,1.349 -29.45,3.731l-0.079,0c-40.563,10.716 -72.553,42.705 -83.19,83.269c-2.461,9.446 -3.81,19.368 -3.81,29.529c0,10.161 1.349,20.083 3.81,29.529c2.937,11.272 7.462,21.829 13.415,31.434c9.605,15.559 22.782,28.736 38.341,38.262c9.684,5.954 20.242,10.557 31.434,13.574l0.079,0c9.446,2.382 19.289,3.731 29.45,3.731c10.16,0 20.083,-1.349 29.529,-3.81c40.563,-10.637 72.474,-42.627 83.111,-83.19c2.461,-9.446 3.81,-19.368 3.81,-29.529c0,-10.162 -1.349,-20.084 -3.81,-29.53zm-112.64,111.291c-8.494,0 -16.67,-1.35 -24.37,-3.81l-0.079,0c-25.481,-7.938 -45.643,-28.101 -53.581,-53.581l0,-0.079c-2.461,-7.701 -3.731,-15.876 -3.731,-24.291c0,-45.087 36.674,-81.762 81.762,-81.762c8.494,0 16.67,1.27 24.37,3.731c25.401,7.938 45.564,28.101 53.581,53.581l0,0.079c2.461,7.7 3.731,15.876 3.731,24.37c-0.001,45.087 -36.675,81.762 -81.683,81.762z"/>
  </g>
  <g transform="rotate(-135 257.973 256)" id="svg_11">
   <path id="svg_12" fill="#BD334F" d="m298.327,296.354l-80.703,-80.703l174.962,-101.759c9.854,-5.731 13.225,-2.36 7.494,7.494l-101.753,174.968z"/>
   <path id="svg_13" fill="#7DCBDA" d="m298.327,296.354l-174.967,101.754c-9.854,5.731 -13.225,2.36 -7.494,-7.494l101.759,-174.962l80.702,80.702z"/>
  </g>
  <circle id="svg_14" fill="#FFFFFF" r="22.8" cy="256" cx="257.973"/>
  <g id="svg_15">
   <path id="svg_16" fill="#F7F1E4" d="m266.605,15.955l0,25.481l-19.766,-25.481l-8.732,0l0,41.595l9.764,0l0,-25.56l19.845,25.56l8.653,0l0,-41.595l-9.764,0z"/>
  </g>
  <g id="svg_17">
   <path id="svg_18" fill="#F7F1E4" d="m274.146,475.009c-0.635,-1.509 -1.588,-2.778 -2.937,-3.731c-1.111,-0.953 -2.381,-1.668 -3.889,-2.143c-1.508,-0.476 -3.334,-0.873 -5.636,-1.191l-5.953,-0.714c-1.111,-0.159 -1.984,-0.317 -2.778,-0.635c-0.715,-0.238 -1.27,-0.556 -1.826,-0.953c-0.476,-0.476 -0.873,-0.872 -1.111,-1.428c-0.159,-0.477 -0.318,-1.032 -0.318,-1.587c0,-1.429 0.635,-2.62 1.905,-3.651c1.19,-1.033 3.175,-1.588 5.795,-1.588c1.588,0 3.334,0.159 5.159,0.476c1.826,0.318 3.493,1.112 5.08,2.382l6.192,-5.08c-2.223,-1.746 -4.525,-3.016 -7.144,-3.731c-2.54,-0.714 -5.557,-1.111 -9.049,-1.111c-2.699,0 -5.159,0.318 -7.303,0.953s-3.969,1.429 -5.477,2.54c-1.429,1.112 -2.62,2.461 -3.413,4.048c-0.794,1.509 -1.191,3.175 -1.191,5.081c0,3.572 1.191,6.27 3.572,8.175c1.111,0.873 2.461,1.668 4.048,2.223c1.508,0.555 3.413,0.952 5.636,1.27l5.953,0.714c1.27,0.158 2.222,0.317 2.858,0.555c0.556,0.159 1.111,0.477 1.667,0.874c1.031,0.872 1.508,1.984 1.508,3.413c0,1.667 -0.715,3.016 -2.223,3.889c-1.508,0.873 -3.731,1.349 -6.668,1.349c-2.302,0 -4.445,-0.237 -6.509,-0.793c-2.064,-0.477 -3.89,-1.429 -5.477,-2.7l-6.351,5.239c2.461,2.064 5.16,3.493 8.097,4.286c3.016,0.795 6.35,1.192 10.161,1.192c2.619,0 5.08,-0.238 7.303,-0.874c2.302,-0.555 4.286,-1.349 5.953,-2.382c1.667,-1.111 2.937,-2.46 3.89,-3.969c0.953,-1.587 1.349,-3.333 1.349,-5.397c0,-1.905 -0.238,-3.572 -0.873,-5.001z"/>
  </g>
  <g id="svg_19">
   <path id="svg_20" fill="#F7F1E4" d="m487.678,245.125l0,-7.224l-32.863,0l0,41.595l32.863,0l0,-7.223l-23.1,0l0,-10.161l19.686,0l0,-7.224l-19.686,0l0,-9.764l23.1,0l0,0.001z"/>
  </g>
  <g id="svg_21">
   <path id="svg_22" fill="#F7F1E4" d="m59.661,237.901l-7.461,26.196l-8.652,-26.196l-6.986,0l-8.732,26.196l-7.383,-26.196l-9.683,0l12.701,41.595l7.78,0l8.811,-25.242l8.732,25.242l7.78,0l12.78,-41.595l-9.687,0z"/>
  </g>
  <path id="svg_23" fill="#040000" opacity="0.1" d="m437.026,74.974l-362.022,362.022c19.478,19.479 42.081,35.829 67.006,48.253c34.292,17.146 73.03,26.751 113.99,26.751c141.375,0 256,-114.624 256,-256c0,-48.739 -13.654,-94.303 -37.309,-133.12c-10.636,-17.463 -23.298,-33.539 -37.665,-47.906z"/>
 </g>
</svg>